<svg width="50" height="50" viewBox="0 0 50 50" fill="none" xmlns="http://www.w3.org/2000/svg">
<path d="M19.4322 6.86552C29.4157 4.33612 35.4758 10.1176 37.9719 13.731L41.894 0L48.312 3.25209L39.3981 15.1764C40.8243 15.1764 47.8121 17.9885 49.0265 21.6806C49.7396 23.8486 52.5907 39.7477 43.3202 43.7225C43.2765 43.7535 43.2322 43.7846 43.1875 43.8158C43.3202 42.6385 43.6782 41.2344 43.6782 39.7477C43.6782 35.3573 40.56 31.7982 35.8339 31.7982C31.1078 31.7982 27.2765 35.3573 27.2765 39.7477C27.2765 44.0402 30.9388 47.5381 35.5191 47.692C27.318 50.6533 15.0472 51.906 1.24801 44.2964C-0.561457 43.2985 -0.167169 42.8262 0.939772 41.5003C2.01411 40.2133 3.75974 38.1223 4.81347 33.9663C6.95281 13.731 13.3118 9.14051 19.4322 6.86552Z" fill="#6B5C43"/>
</svg>
